# xmcd CD database file generated by Grip 3.2.0
# 
# Track frame offsets:
#       150
#       12642
#       26480
#       38590
#       52370
#       63912
#       75970
#       90240
#       104035
#       117195
#       128025
#       141450
#       155760
#       169282
#       181447
#       194212
#       206627
#       218197
# 
# Disc length: 3101 seconds
# 
# Revision: 1
# Processed by: cddbd v1.5.2PL0 Copyright (c) Steve Scherf et al.
# Submitted via: Grip 3.2.0
# 
DISCID=0c0c1b12
DTITLE=Variuos - Cookin' the blues
DYEAR=1900
DGENRE=Blues
TTITLE0=Howlin' Wolf - Spoonfull
TTITLE1=Muddy Waters - I Be's troubled
TTITLE2=Jimmy Witherspoon - Ain't Nobody's Business
TTITLE3=Robert Nighthawk - Sweet Black Angel
TTITLE4=Sonny Boy Williamson - Don't Start Me To Talkin'
TTITLE5=lmore James - The Sun is Shinning
TTITLE6=Lowell Fulson - Reconsider Baby
TTITLE7=Chuck Berry - Wee Wee Hours
TTITLE8=Muddy Waters - Mannish Boy
TTITLE9=Little Walter - Blue Midnight
TTITLE10=Buddy Guy - My time after a while
TTITLE11=Otis Rush - So Many Roads
TTITLE12=John Lee Hooker - One Bourbon, One Scotch, One Beer
TTITLE13=Bobby Bland - I Pity The Fool
TTITLE14=Howlin' Wolf - Killing Floor
TTITLE15=Bo Diddley - Pretty Thing
TTITLE16=Etta James - I'd Rather Go Blind
TTITLE17=BB King - Ain't Nobody Home
EXTD=
EXTT0=
EXTT1=
EXTT2=
EXTT3=
EXTT4=
EXTT5=
EXTT6=
EXTT7=
EXTT8=
EXTT9=
EXTT10=
EXTT11=
EXTT12=
EXTT13=
EXTT14=
EXTT15=
EXTT16=
EXTT17=
PLAYORDER=
